<svg width="152" height="35" viewBox="0 0 152 35" fill="none" xmlns="http://www.w3.org/2000/svg">
<path d="M6.78835 27H0.856534L9.89489 0.818181H17.0284L26.054 27H20.1222L13.5639 6.80114H13.3594L6.78835 27ZM6.41761 16.7088H20.429V21.0298H6.41761V16.7088ZM29.103 34.3636V7.36364H34.4723V10.6619H34.7152C34.9538 10.1335 35.299 9.59659 35.7507 9.05114C36.2109 8.49716 36.8075 8.03693 37.5405 7.67045C38.282 7.29545 39.2024 7.10795 40.3018 7.10795C41.7337 7.10795 43.0547 7.48295 44.2649 8.23295C45.4751 8.97443 46.4425 10.0952 47.1669 11.5952C47.8913 13.0866 48.2536 14.9574 48.2536 17.2074C48.2536 19.3977 47.8999 21.2472 47.1925 22.7557C46.4936 24.2557 45.5391 25.3935 44.3288 26.169C43.1271 26.9361 41.7805 27.3196 40.2891 27.3196C39.2322 27.3196 38.3331 27.1449 37.5916 26.7955C36.8587 26.446 36.2578 26.0071 35.7891 25.4787C35.3203 24.9418 34.9624 24.4006 34.7152 23.8551H34.549V34.3636H29.103ZM34.4339 17.1818C34.4339 18.3494 34.5959 19.3679 34.9197 20.2372C35.2436 21.1065 35.7124 21.7841 36.326 22.2699C36.9396 22.7472 37.6854 22.9858 38.5632 22.9858C39.4496 22.9858 40.1996 22.7429 40.8132 22.2571C41.4268 21.7628 41.8913 21.081 42.2067 20.2116C42.5305 19.3338 42.6925 18.3239 42.6925 17.1818C42.6925 16.0483 42.5348 15.0511 42.2195 14.1903C41.9041 13.3295 41.4396 12.6562 40.826 12.1705C40.2124 11.6847 39.4581 11.4418 38.5632 11.4418C37.6768 11.4418 36.9268 11.6761 36.3132 12.1449C35.7081 12.6136 35.2436 13.2784 34.9197 14.1392C34.5959 15 34.4339 16.0142 34.4339 17.1818ZM51.8842 27V7.36364H57.1641V10.7898H57.3686C57.7266 9.57102 58.3274 8.65057 59.1712 8.02841C60.0149 7.39773 60.9865 7.08239 62.0859 7.08239C62.3587 7.08239 62.6527 7.09943 62.968 7.13352C63.2834 7.16761 63.5604 7.21449 63.799 7.27415V12.1065C63.5433 12.0298 63.1896 11.9616 62.7379 11.902C62.2862 11.8423 61.8729 11.8125 61.4979 11.8125C60.6967 11.8125 59.9808 11.9872 59.3501 12.3366C58.728 12.6776 58.2337 13.1548 57.8672 13.7685C57.5092 14.3821 57.3303 15.0895 57.3303 15.8906V27H51.8842ZM74.6495 27.3835C72.6296 27.3835 70.891 26.9744 69.4336 26.1562C67.9847 25.3295 66.8683 24.1619 66.0842 22.6534C65.3001 21.1364 64.908 19.3423 64.908 17.2713C64.908 15.2514 65.3001 13.4787 66.0842 11.9531C66.8683 10.4276 67.9719 9.23864 69.3952 8.38636C70.8271 7.53409 72.506 7.10795 74.4322 7.10795C75.7276 7.10795 76.9336 7.31676 78.0501 7.73438C79.1751 8.14347 80.1552 8.76136 80.9904 9.58807C81.8342 10.4148 82.4904 11.4545 82.9592 12.7074C83.4279 13.9517 83.6623 15.4091 83.6623 17.0795V18.5753H67.0813V15.2003H78.5359C78.5359 14.4162 78.3654 13.7216 78.0245 13.1165C77.6836 12.5114 77.2106 12.0384 76.6055 11.6974C76.0089 11.348 75.3143 11.1733 74.5217 11.1733C73.695 11.1733 72.962 11.3651 72.3228 11.7486C71.6921 12.1236 71.1978 12.6307 70.8398 13.2699C70.4819 13.9006 70.2987 14.6037 70.2901 15.3793V18.5881C70.2901 19.5597 70.4691 20.3991 70.8271 21.1065C71.1935 21.8139 71.7092 22.3594 72.3739 22.7429C73.0387 23.1264 73.8271 23.3182 74.739 23.3182C75.3441 23.3182 75.8981 23.233 76.4009 23.0625C76.9038 22.892 77.3342 22.6364 77.6921 22.2955C78.0501 21.9545 78.3228 21.5369 78.5103 21.0426L83.5472 21.375C83.2915 22.5852 82.7674 23.642 81.9748 24.5455C81.1907 25.4403 80.1765 26.1392 78.9322 26.642C77.6964 27.1364 76.2688 27.3835 74.6495 27.3835ZM92.6623 15.6477V27H87.2163V7.36364H92.4066V10.8281H92.6367C93.0714 9.68608 93.8001 8.78267 94.8228 8.1179C95.8455 7.4446 97.0856 7.10795 98.543 7.10795C99.9066 7.10795 101.096 7.40625 102.11 8.00284C103.124 8.59943 103.912 9.4517 104.475 10.5597C105.037 11.6591 105.319 12.9716 105.319 14.4972V27H99.8725V15.4688C99.881 14.267 99.5742 13.3295 98.9521 12.6562C98.3299 11.9744 97.4734 11.6335 96.3825 11.6335C95.6495 11.6335 95.0018 11.7912 94.4393 12.1065C93.8853 12.4219 93.4506 12.8821 93.1353 13.4872C92.8285 14.0838 92.6708 14.804 92.6623 15.6477ZM116.847 27.3196C115.355 27.3196 114.004 26.9361 112.794 26.169C111.592 25.3935 110.638 24.2557 109.93 22.7557C109.232 21.2472 108.882 19.3977 108.882 17.2074C108.882 14.9574 109.244 13.0866 109.969 11.5952C110.693 10.0952 111.656 8.97443 112.858 8.23295C114.068 7.48295 115.393 7.10795 116.834 7.10795C117.933 7.10795 118.849 7.29545 119.582 7.67045C120.324 8.03693 120.92 8.49716 121.372 9.05114C121.832 9.59659 122.182 10.1335 122.42 10.6619H122.587V0.818181H128.02V27H122.651V23.8551H122.42C122.165 24.4006 121.803 24.9418 121.334 25.4787C120.874 26.0071 120.273 26.446 119.531 26.7955C118.798 27.1449 117.903 27.3196 116.847 27.3196ZM118.572 22.9858C119.45 22.9858 120.192 22.7472 120.797 22.2699C121.411 21.7841 121.879 21.1065 122.203 20.2372C122.536 19.3679 122.702 18.3494 122.702 17.1818C122.702 16.0142 122.54 15 122.216 14.1392C121.892 13.2784 121.423 12.6136 120.81 12.1449C120.196 11.6761 119.45 11.4418 118.572 11.4418C117.678 11.4418 116.923 11.6847 116.31 12.1705C115.696 12.6562 115.232 13.3295 114.916 14.1903C114.601 15.0511 114.443 16.0483 114.443 17.1818C114.443 18.3239 114.601 19.3338 114.916 20.2116C115.24 21.081 115.705 21.7628 116.31 22.2571C116.923 22.7429 117.678 22.9858 118.572 22.9858Z" fill="#7CBD3B"/>
<path d="M140.27 25.581V7.47869H144.847V25.581H140.27ZM133.507 18.8182V14.2415H151.61V18.8182H133.507Z" fill="#F8C811"/>
</svg>
